<?xml version="1.0" ?><svg id="Layer_1" style="enable-background:new 0 0 137.3 139.3;" version="1.1" viewBox="0 0 137.3 139.3" xml:space="preserve" xmlns="http://www.w3.org/2000/svg" xmlns:xlink="http://www.w3.org/1999/xlink"><style type="text/css">
	.st0{fill:#2C8AAA;}
	.st1{opacity:0.19;clip-path:url(#XMLID_50_);fill:#070808;}
	.st2{fill:#215C6D;}
	.st3{fill:#FFFFFF;}
	.st4{fill:#E0E0E0;}
</style><g id="XMLID_2670_"><g id="XMLID_42_"><circle class="st0" cx="68.5" cy="69.6" id="XMLID_633_" r="66.2"/><g id="XMLID_213_"><defs><circle cx="68.7" cy="69.6" id="XMLID_214_" r="66.2"/></defs><clipPath id="XMLID_50_"><use style="overflow:visible;" xlink:href="#XMLID_214_"/></clipPath><polygon class="st1" id="XMLID_215_" points="102.4,34.9 142.9,71.4 134,135.8 83.9,135.8 38.2,104.4 39.6,57.4 98.3,42.1    "/></g></g><g id="XMLID_33_"><rect class="st2" height="62.8" id="XMLID_635_" width="2.7" x="38.2" y="41.6"/><g id="XMLID_41_"><path class="st3" d="M60.7,42.4c0-5.6,33.3,6.6,41.7-7.6c0,0,0.3,8.8-7.9,14.7c2,1.4,7.9,5.2,7.9,8.6     c-23-5.2-41.7,8.6-41.7-0.2V42.4z" id="XMLID_634_"/><path class="st4" d="M60.7,42.8c0,4.6,21.6-7.8,21.6-1.5v16.3c0-4.2-9.2,6.5-21.9,2.1L60.7,42.8L60.7,42.8z" id="XMLID_212_"/></g><path class="st3" d="M38.2,47.2v17.4c23,4.2,43.9,5.9,43.9-9.3v-14C82.1,53.9,61.2,51.4,38.2,47.2z" id="XMLID_40_"/><ellipse class="st2" cx="39.6" cy="41.6" id="XMLID_39_" rx="4.7" ry="3.7"/></g></g></svg>