<?xml version="1.0" ?><svg enable-background="new 0 0 64 64" height="64px" version="1.1" viewBox="0 0 64 64" width="64px" xml:space="preserve" xmlns="http://www.w3.org/2000/svg" xmlns:xlink="http://www.w3.org/1999/xlink"><g id="Layer_1"><g><circle cx="31.833" cy="32" fill="#E0E0D1" r="32"/></g><g opacity="0.2"><g><g><path d="M38.609,22v-3.656c-0.018,0.894-3.903,3.276-5.174,4.107C33.892,22.17,34.424,22,35,22H38.609z" fill="#231F20"/></g></g><g><path d="M38.609,18.344C38.614,18.129,38.394,18,37.858,18H24h-1h-3v3v14v3h3h1h8V25     c0-0.237,0.029-0.466,0.081-0.688c0.15-0.638,0.501-1.198,0.985-1.606C33.498,22.342,38.589,19.367,38.609,18.344z" fill="#231F20"/></g></g><g><g><g><path d="M38.609,20v-3.656c-0.018,0.894-3.903,3.276-5.174,4.107C33.892,20.17,34.424,20,35,20H38.609z" fill="#76C2AF"/></g></g><g><path d="M38.609,16.344C38.614,16.129,38.394,16,37.858,16H24h-1h-3v3v14v3h3h1h8V23     c0-0.237,0.029-0.466,0.081-0.688c0.15-0.638,0.501-1.198,0.985-1.606C33.498,20.342,38.589,17.367,38.609,16.344z" fill="#C75C5C"/></g></g><g opacity="0.2"><path d="M49,20H38.609v-1H34c-1.657,0-3,1.343-3,3v16v1c0,1.657,1.343,3,3,3h15c1.657,0,3-1.343,3-3V23    C52,21.343,50.657,20,49,20z" fill="#231F20"/></g><g><path d="M49,20h-9h-5c-1.657,0-3,1.343-3,3v13v1c0,1.657,1.343,3,3,3h14c1.657,0,3-1.343,3-3V23    C52,21.343,50.657,20,49,20z" fill="#C75C5C"/></g><g opacity="0.2"><path d="M20,52c0,1.105-0.895,2-2,2l0,0c-1.105,0-2-0.895-2-2V18c0-1.105,0.895-2,2-2l0,0c1.105,0,2,0.895,2,2V52z    " fill="#231F20"/></g><g><path d="M20,50c0,1.105-0.895,2-2,2l0,0c-1.105,0-2-0.895-2-2V16c0-1.105,0.895-2,2-2l0,0c1.105,0,2,0.895,2,2V50z    " fill="#E0995E"/></g><g opacity="0.2"><circle cx="18" cy="17" fill="#231F20" r="3"/></g><g><circle cx="18" cy="15" fill="#E0995E" r="3"/></g></g><g id="Layer_2"/></svg>