<svg xmlns="http://www.w3.org/2000/svg" xmlns:xlink="http://www.w3.org/1999/xlink" version="1.1" x="0px" y="0px" viewBox="0 0 28.35 35.4375" enable-background="new 0 0 28.35 28.35" xml:space="preserve"><path d="M23.601,11.031c0-1.345-0.608-3.297-0.608-3.297s0.063-0.832,0-1.151c-0.062-0.32-1.312-1.953-1.474-2.112  s-1.022-0.48-1.022-0.48s-0.256-0.575-0.933-1.566c-0.678-0.993-0.315-1.473-0.957-1.761c-0.639-0.288-4.315-0.3-4.315-0.3h-0.232  c0,0-3.676,0.012-4.315,0.3C9.103,0.95,9.462,1.43,8.786,2.423C8.111,3.414,7.854,3.99,7.854,3.99S6.99,4.311,6.83,4.47  C6.671,4.63,5.422,6.262,5.358,6.583c-0.063,0.319,0,1.151,0,1.151S4.75,9.687,4.75,11.031c0,1.345,0.704,3.185,0.704,3.185  s-0.479,1.104-0.225,1.648c0.257,0.543,0.93,1.695,1.186,2.017c0.257,0.32,1.088,0.385,1.312,0.768  c0.225,0.386,1.057,2.019,1.312,4.033c0.256,2.016,0.365,3.777,0.365,3.777s-0.31,1.528,4.654,1.528h0.232  c4.964,0,4.653-1.528,4.653-1.528s0.109-1.763,0.367-3.777c0.256-2.016,1.088-3.647,1.312-4.033  c0.223-0.383,1.055-0.446,1.311-0.768c0.258-0.32,0.928-1.474,1.187-2.017c0.254-0.545-0.226-1.648-0.226-1.648  S23.601,12.375,23.601,11.031z M21.898,13.773c-0.416,0.982-1.012,1.865-1.77,2.623s-1.642,1.354-2.623,1.771  c-1.021,0.43-2.103,0.647-3.214,0.647c-1.113,0-2.196-0.219-3.213-0.647c-0.984-0.416-1.867-1.013-2.624-1.771  c-0.758-0.758-1.354-1.641-1.77-2.623c-0.431-1.019-0.649-2.101-0.649-3.214s0.219-2.195,0.649-3.213  C7.1,6.362,7.696,5.479,8.453,4.721c0.757-0.757,1.64-1.353,2.624-1.769c1.018-0.432,2.1-0.649,3.213-0.649  c1.112,0,2.194,0.218,3.214,0.649c0.981,0.416,1.865,1.011,2.623,1.769s1.354,1.641,1.77,2.624c0.431,1.019,0.648,2.1,0.648,3.213  S22.327,12.754,21.898,13.773z M14.291,4.678c3.248,0,5.88,2.632,5.88,5.88s-2.633,5.88-5.88,5.88s-5.88-2.633-5.88-5.88  S11.044,4.678,14.291,4.678 M14.291,3.24c-0.987,0-1.945,0.194-2.85,0.576C10.57,4.184,9.788,4.712,9.116,5.384  C8.444,6.055,7.917,6.838,7.548,7.709c-0.382,0.902-0.576,1.861-0.576,2.849c0,0.988,0.194,1.946,0.576,2.851  c0.369,0.87,0.896,1.653,1.568,2.325c0.672,0.672,1.453,1.199,2.325,1.568c0.903,0.381,1.861,0.574,2.85,0.574  c0.987,0,1.944-0.193,2.849-0.574c0.873-0.369,1.654-0.896,2.326-1.568s1.199-1.455,1.568-2.325  c0.381-0.904,0.573-1.862,0.573-2.851c0-0.987-0.192-1.946-0.573-2.849c-0.369-0.872-0.896-1.654-1.568-2.326  s-1.453-1.199-2.326-1.568C16.236,3.434,15.279,3.24,14.291,3.24L14.291,3.24z M13.988,6.922c0.415,0,0.751,0.336,0.751,0.751  s-0.336,0.751-0.751,0.751c-0.414,0-0.751-0.336-0.751-0.751S13.573,6.922,13.988,6.922z M17.455,8.145  c-0.103-0.152-0.31-0.193-0.461-0.092l-0.039,0.025l-3.836-2.906l-0.454,0.569c-0.091,0.114-0.072,0.281,0.043,0.373  c0.049,0.039,0.106,0.059,0.166,0.059c0.078,0,0.155-0.035,0.208-0.102l0.212-0.267l3.309,2.507l-0.525,0.352l-1.229-0.258  c-0.05-0.01-0.1-0.009-0.146,0.003c-0.045,0.003-0.093,0.01-0.138,0.021l-0.423,0.12c-0.323,0.09-0.516,0.409-0.431,0.712  l0.548,1.959c0.021,0.072-0.615,1.598-0.615,1.598l-1.579,1.986c-0.137,0.172-0.107,0.423,0.064,0.562  c0.074,0.058,0.161,0.086,0.248,0.086c0.117,0,0.233-0.053,0.312-0.15l1.604-2.017c0.017-0.021,0.031-0.044,0.043-0.067l0.8-1.572  c0.003-0.007,0.007-0.014,0.009-0.021l0.396,1.297l-0.592,2.02c-0.062,0.212,0.06,0.434,0.271,0.495  c0.037,0.011,0.074,0.017,0.111,0.017c0.174,0,0.332-0.112,0.384-0.286l0.625-2.136c0.021-0.074,0.021-0.153-0.001-0.229  c0,0-0.453-1.892-0.49-2.026L15.41,9.204l0.668,0.139C16.1,9.348,16.123,9.35,16.146,9.35c0.065,0,0.13-0.02,0.186-0.056  l1.032-0.688C17.516,8.504,17.557,8.298,17.455,8.145z"/><text x="0" y="43.35" fill="#000000" font-size="5px" font-weight="bold" font-family="'Helvetica Neue', Helvetica, Arial-Unicode, Arial, Sans-serif">Created by Charlotte Vogel</text><text x="0" y="48.35" fill="#000000" font-size="5px" font-weight="bold" font-family="'Helvetica Neue', Helvetica, Arial-Unicode, Arial, Sans-serif">from the Noun Project</text></svg>